<svg width="48" height="48" viewBox="0 0 48 48" fill="none" xmlns="http://www.w3.org/2000/svg">
<path d="M39.4687 16.9559V11.138L34.2469 5.91617C33.6977 5.36699 33.6977 4.47664 34.2469 3.92745C34.796 3.37827 35.6864 3.37827 36.2356 3.92745L41.4575 9.14933C41.9849 9.67677 42.2812 10.3921 42.2812 11.138V14.1433L39.4687 16.9559Z" fill="#BDF7F7"/>
<path d="M42.2812 24.797L39.4688 19.7684V41.2032C39.4688 41.9798 38.8391 42.6094 38.0625 42.6094C37.2859 42.6094 36.6562 41.9798 36.6562 41.2032V30.4219C36.6562 27.3153 34.1378 24.7969 31.0312 24.7969L28.2188 26.2032L31.0312 27.6094C32.5846 27.6094 33.8438 28.8686 33.8438 30.4219V41.2032C33.8438 43.5331 35.7325 45.4219 38.0625 45.4219C40.3925 45.4219 42.2812 43.5331 42.2812 41.2032V24.797Z" fill="#504B83"/>
<path d="M28.2188 0.703125H25.4062V11.9531L31.0312 6.32812V3.51562C31.0312 1.96219 29.7722 0.703125 28.2188 0.703125Z" fill="#F52314"/>
<path d="M25.4062 0.703125H9.9375C8.38406 0.703125 7.125 1.96219 7.125 3.51562V6.32812L28.2188 13.3594V3.51562C28.2188 1.96219 26.9597 0.703125 25.4062 0.703125Z" fill="#FF4D1C"/>
<path d="M31.0312 30.4219V45.8906H19.7812L28.2188 30.4219H31.0312Z" fill="#F52314"/>
<path d="M7.125 30.4219H28.2188V45.8906H7.125V30.4219Z" fill="#FF4D1C"/>
<path d="M31.0312 44.4844H28.2188V47.2969H31.0312C31.8079 47.2969 32.4375 46.6673 32.4375 45.8906C32.4375 45.114 31.8079 44.4844 31.0312 44.4844Z" fill="#5B3364"/>
<path d="M29.625 45.8906C29.625 45.114 28.9954 44.4844 28.2188 44.4844H7.125C6.34837 44.4844 5.71875 45.114 5.71875 45.8906C5.71875 46.6673 6.34837 47.2969 7.125 47.2969H28.2188C28.9954 47.2969 29.625 46.6673 29.625 45.8906Z" fill="#504B83"/>
<path d="M28.2188 6.32812L22.5938 18.375L28.2188 30.4219H31.0312V6.32812H28.2188Z" fill="#7CF0EE"/>
<path d="M7.125 6.32812V30.4219H28.2188V21.9844L19.7812 15.5625L28.2188 9.14062V6.32812H7.125Z" fill="#BDF7F7"/>
<path d="M21.1875 24.7969L19.1246 26.2031L21.1875 27.6094H25.4063V24.7969H21.1875Z" fill="#5B3364"/>
<path d="M16.9688 24.7969L14.9059 26.2031L16.9688 27.6094H21.1875V24.7969H16.9688Z" fill="#504B83"/>
<path d="M12.75 24.7969H16.9688V27.6094H12.75V24.7969Z" fill="#4663A2"/>
<path d="M25.4062 9.14062L19.7812 15.5625L25.4062 21.9844H28.2188V9.14062H25.4062Z" fill="#3193E0"/>
<path d="M9.9375 9.14062H25.4062V21.9844H9.9375V9.14062Z" fill="#26ABFF"/>
<path d="M39.4688 14.1434L38.0625 15.5497V23.3907L39.4688 24.797H42.2812V14.1435L39.4688 14.1434Z" fill="#F52314"/>
<path d="M38.0625 14.1434C37.2859 14.1434 36.6562 14.7731 36.6562 15.5497V23.3907C36.6562 24.1674 37.2859 24.797 38.0625 24.797H39.4688V14.1435L38.0625 14.1434Z" fill="#FF4D1C"/>
<path d="M28.9219 21.9844V9.14062C28.9219 8.95414 28.8478 8.7753 28.7159 8.64344C28.5841 8.51158 28.4052 8.4375 28.2188 8.4375H9.9375C9.75102 8.4375 9.57218 8.51158 9.44032 8.64344C9.30845 8.7753 9.23438 8.95414 9.23438 9.14062V21.9844C9.23438 22.1709 9.30845 22.3497 9.44032 22.4816C9.57218 22.6134 9.75102 22.6875 9.9375 22.6875H28.2188C28.4052 22.6875 28.5841 22.6134 28.7159 22.4816C28.8478 22.3497 28.9219 22.1709 28.9219 21.9844ZM27.5156 21.2812H10.6406V9.84375H27.5156V21.2812ZM12.75 24.0938C12.5635 24.0938 12.3847 24.1678 12.2528 24.2997C12.121 24.4316 12.0469 24.6104 12.0469 24.7969V27.6094C12.0469 27.7959 12.121 27.9747 12.2528 28.1066C12.3847 28.2384 12.5635 28.3125 12.75 28.3125H25.4062C25.5927 28.3125 25.7716 28.2384 25.9034 28.1066C26.0353 27.9747 26.1094 27.7959 26.1094 27.6094V24.7969C26.1094 24.6104 26.0353 24.4316 25.9034 24.2997C25.7716 24.1678 25.5927 24.0938 25.4062 24.0938H12.75ZM20.4844 25.5V26.9062H17.6719V25.5H20.4844ZM13.4531 25.5H16.2656V26.9062H13.4531V25.5ZM24.7031 26.9062H21.8906V25.5H24.7031V26.9062Z" fill="black"/>
<path d="M41.9547 8.65228L36.7328 3.43041C36.3344 3.03197 35.8047 2.81259 35.2413 2.81259C34.6778 2.81259 34.1482 3.03206 33.7497 3.43041C32.9274 4.25287 32.9274 5.59097 33.7497 6.41344L38.7657 11.4293V13.4403H38.0626C36.8995 13.4403 35.9532 14.3865 35.9532 15.5497V23.3907C35.9532 24.5539 36.8995 25.5001 38.0626 25.5001H38.7657V41.2031C38.7657 41.5909 38.4503 41.9062 38.0626 41.9062C37.6748 41.9062 37.3595 41.5909 37.3595 41.2031V30.4219C37.3595 26.9325 34.5207 24.0938 31.0313 24.0938C30.8449 24.0938 30.666 24.1678 30.5342 24.2997C30.4023 24.4316 30.3282 24.6104 30.3282 24.7969V29.7188H7.82822V7.03125H30.3282V21.9844C30.3282 22.3727 30.6429 22.6875 31.0313 22.6875C31.4198 22.6875 31.7345 22.3727 31.7345 21.9844V3.51562C31.7344 1.57706 30.1573 0 28.2188 0H9.9375C7.99894 0 6.42188 1.57706 6.42188 3.51562V43.9022C5.60353 44.1924 5.01562 44.9739 5.01562 45.8906C5.01562 47.0538 5.96194 48 7.125 48H31.0312C32.1943 48 33.1406 47.0538 33.1406 45.8906C33.1406 44.974 32.5527 44.1924 31.7344 43.9022V28.4334C32.5527 28.7237 33.1406 29.5052 33.1406 30.4219V41.2031C33.1406 43.9171 35.3486 46.125 38.0625 46.125C40.7764 46.125 42.9844 43.9171 42.9844 41.2031V11.1382C42.9844 10.1992 42.6187 9.31631 41.9547 8.65228ZM39.966 10.6409L34.7441 5.41903C34.47 5.14491 34.47 4.69884 34.7441 4.42472C34.8769 4.29187 35.0535 4.21875 35.2413 4.21875C35.4291 4.21875 35.6057 4.29187 35.7384 4.42472L40.9603 9.64659C41.3588 10.045 41.5782 10.5747 41.5782 11.1382V13.4404H40.172V11.1382C40.1719 10.9517 40.0978 10.7728 39.966 10.6409V10.6409ZM37.3594 23.3907V15.5497C37.3594 15.162 37.6747 14.8465 38.0625 14.8465H41.5781V24.0938H38.0625C37.6747 24.0938 37.3594 23.7785 37.3594 23.3907ZM30.3281 31.125V43.7812H7.82812V31.125H30.3281ZM9.9375 1.40625H28.2188C29.3818 1.40625 30.3281 2.35247 30.3281 3.51562V5.625H7.82812V3.51562C7.82812 2.35247 8.77444 1.40625 9.9375 1.40625ZM31.0312 46.5938H7.125C6.73725 46.5938 6.42188 46.2784 6.42188 45.8906C6.42188 45.5029 6.73725 45.1875 7.125 45.1875H31.0312C31.419 45.1875 31.7344 45.5029 31.7344 45.8906C31.7344 46.2784 31.419 46.5938 31.0312 46.5938ZM38.0625 44.7188C36.1239 44.7188 34.5469 43.1417 34.5469 41.2031V30.4219C34.5469 28.7241 33.3371 27.3037 31.7344 26.977V25.5502C34.1164 25.8923 35.9531 27.9467 35.9531 30.422V41.2032C35.9531 42.3664 36.8994 43.3126 38.0625 43.3126C39.2256 43.3126 40.1719 42.3664 40.1719 41.2032V25.5001H41.5781V41.2031C41.5781 43.1417 40.0011 44.7188 38.0625 44.7188Z" fill="black"/>
</svg>
